<svg width="192" height="192" viewBox="0 0 192 192" fill="none" xmlns="http://www.w3.org/2000/svg">
  <rect width="192" height="192" rx="40" fill="url(#bg)"/>
  <circle cx="96" cy="96" r="60" fill="#FFF9F0"/>
  <path d="M96 44C78.3269 44 64 58.3269 64 76V90C64 104.4 74.4 116 88.8 118.4L92 119.2V136H68V146H124V136H100V119.2L103.2 118.4C117.6 116 128 104.4 128 90V76C128 58.3269 113.673 44 96 44Z" fill="#8B5A1F"/>
  <circle cx="96" cy="96" r="20" fill="#D5A349"/>
  <path d="M96 70L104 88H88L96 70Z" fill="#D5A349"/>
  <defs>
    <linearGradient id="bg" x1="24" y1="20" x2="168" y2="172" gradientUnits="userSpaceOnUse">
      <stop stop-color="#3D1F0F"/>
      <stop offset="1" stop-color="#8A5318"/>
    </linearGradient>
  </defs>
</svg>
